# xmcd
# Track frame offsets:
# 150
# 21497
# 36745
# 51757
# 66059
# 81584
# 96844
# 111553
# 133961
# 151829
# 169445
# 183163
# 196445
# 213969
#
# Disc length: 3218 seconds
# Revision: 0
# Processed by: cddbd v1.5.2PL0 Copyright (c) Steve Scherf et al.
# Submitted via: VisiTrax 2.10.3.257 - For more info visit www.synapsa.com
#
DISCID=d60c900e
DTITLE=Alison Krauss - The Essential Alison Krauss
DYEAR=2009
DGENRE=Female
TTITLE0=Simple Love
TTITLE1=Sister Rosetta Goes Before Us
TTITLE2=Let Me Touch You For A While
TTITLE3=The Lucky One
TTITLE4=So Long, So Wrong
TTITLE5=Empty Hearts
TTITLE6=Every Time You Say Goodbye
TTITLE7=Wish I Still Had You
TTITLE8=Broadway
TTITLE9=Baby, Now That I've Found You
TTITLE10=Sawing On The Strings
TTITLE11=Restless
TTITLE12=When You Say Nothing At All
TTITLE13=A Living Prayer
EXTD=UPC: 0011661065529    \nlbl: Rounder Records     \npre: 610     \nsuf
EXTD=: 6552
EXTT0=
EXTT1=
EXTT2=
EXTT3=
EXTT4=
EXTT5=
EXTT6=
EXTT7=
EXTT8=
EXTT9=
EXTT10=
EXTT11=
EXTT12=
EXTT13=
PLAYORDER=
